# xmcd
#
# Track frame offsets:
# 150
# 16040
# 33332
# 51397
# 66017
# 84070
# 100417
# 115830
# 131000
# 150542
# 165585
# 180195
# 196135
# 209335
# 226382
# 245452
#
# Disc length: 3449 seconds
#
#
# Revision: 5
# Processed by: cddbd v1.5.2PL0 Copyright (c) Steve Scherf et al.
# Submitted via: FreeRIP 2.942 
#
DISCID=c10d7710
DTITLE=Plácido Domingo - 100 Años de Mariachi
DYEAR=1999
DGENRE=Latin
TTITLE0=Paloma querida
TTITLE1=La malagueña
TTITLE2=Pa' todo el año
TTITLE3=De qué manera te olvido
TTITLE4=Cómo olvidar
TTITLE5=Tequila con limón
TTITLE6=La rondalla
TTITLE7=Ella
TTITLE8=Más fuerte que yo
TTITLE9=¡Ay, Jalisco no te rajes!
TTITLE10=El jinete
TTITLE11=Si nos dejan
TTITLE12=Cuando sale la luna
TTITLE13=Yo soy mexicano
TTITLE14=Amanecí en tus brazos
TTITLE15=La feria de las flores
EXTD=YEAR: 1999
EXTT0=
EXTT1=
EXTT2=
EXTT3=
EXTT4=
EXTT5=
EXTT6=
EXTT7=
EXTT8=
EXTT9=
EXTT10=
EXTT11=
EXTT12=
EXTT13=
EXTT14=
EXTT15=
PLAYORDER=
